<svg width="300" height="300" viewBox="0 0 300 300" fill="none" xmlns="http://www.w3.org/2000/svg">
<path d="M42.4805 140.818C45.4416 131.368 52.7833 124.782 61.3331 122.705C61.3941 122.503 61.4429 122.296 61.5079 122.098C64.2331 113.396 67.9426 105.263 72.4577 97.8037C49.9117 95.1759 27.9191 109.422 20.5042 133.11C11.9748 160.342 25.9383 189.734 51.6892 198.762C56.4074 200.41 61.1826 201.257 65.9008 201.382C62.1587 192.904 59.4986 184.086 57.9449 175.096C45.0023 169.913 38.0877 154.841 42.4805 140.818Z" fill="#E9AE2F"/>
<path d="M113.768 165.777C120.902 143.001 112.3 118.724 94.224 106.108C89.6644 112.668 85.9633 120.014 83.3032 127.981C91.5723 134.953 95.3101 146.851 91.796 158.082C89.7501 164.612 85.5972 169.76 80.4111 173.029C81.8105 180.075 84.0638 187.001 87.2119 193.612C87.6269 194.485 88.0743 195.341 88.5138 196.197C100.057 190.291 109.416 179.658 113.768 165.777Z" fill="#E9AE2F"/>
<path d="M217.151 144.851C223.76 147.17 230.504 147.909 237.029 147.277C236.187 138.842 234.145 130.631 231.021 122.922C228.825 122.789 226.612 122.376 224.428 121.615C211.774 117.176 204.522 103.446 207.178 89.9653C201.052 84.8682 194.129 80.6486 186.515 77.564C186.328 78.1103 186.137 78.6484 185.962 79.1986C177.433 106.439 191.396 135.836 217.151 144.851Z" fill="#558FCB"/>
<path d="M240.754 69.4761C254.371 74.2377 261.758 89.7787 257.247 104.163C256.063 107.953 254.164 111.264 251.772 114.03C255.038 122.177 257.357 130.754 258.658 139.576C268.026 133.373 275.481 123.829 279.227 111.867C287.753 84.6344 273.793 55.2428 248.038 46.2228C230.43 40.0546 211.871 45.0141 199.164 57.4624C207.01 61.1143 214.23 65.721 220.742 71.1108C226.725 67.8676 233.875 67.0586 240.754 69.4761Z" fill="#558FCB"/>
<path d="M259.494 165.122C258.83 173.338 257.281 181.596 254.726 189.765C254.307 191.102 253.86 192.427 253.392 193.735C256.923 200.281 257.94 208.291 255.532 215.986C251.562 228.675 239.689 236.229 227.613 234.598C220.837 241.304 213.226 246.991 204.994 251.507C208.207 253.61 211.693 255.366 215.435 256.678C241.19 265.697 268.979 250.922 277.512 223.685C284.439 201.568 276.524 178.009 259.494 165.122Z" fill="#D6672E"/>
<path d="M206.217 198.718C210.183 186.072 222.027 178.51 234.083 180.106C236.373 172.058 237.463 163.911 237.455 155.889C214.478 152.568 191.798 166.896 184.245 191.031C179.628 205.755 181.605 221.098 188.455 233.53C195.65 230.381 202.341 226.135 208.336 220.952C204.818 214.418 203.805 206.418 206.217 198.718Z" fill="#D6672E"/>
<path d="M144.871 191.595C126.225 185.069 106.515 191.014 93.8164 205.123C98.3921 211.833 103.835 217.739 110.001 222.694C116.68 214.736 127.434 211.286 137.59 214.839C148.149 218.539 154.933 228.72 155.352 239.826C156.284 239.856 157.211 239.878 158.139 239.878C165.11 239.878 171.911 238.91 178.423 237.09C176.999 216.779 164.289 198.399 144.871 191.595Z" fill="#B0C646"/>
<path d="M145.246 262.688C138.652 268.035 129.745 269.954 121.264 266.981C112.385 263.876 106.186 256.18 104.173 247.216C95.9035 241.775 88.4523 235.103 82.001 227.396C75.2492 253.815 89.115 281.512 113.983 290.222C138.119 298.674 164.041 286.243 174.226 262.232C168.963 263.123 163.59 263.575 158.135 263.575C153.816 263.575 149.517 263.273 145.246 262.688Z" fill="#B0C646"/>
<path d="M177.639 76.2962C177.806 75.771 177.949 75.2463 178.091 74.7172C171.546 72.9106 164.844 71.9814 158.1 71.9814C156.823 71.9814 155.554 72.0204 154.284 72.0849C148.655 84.2103 135.314 90.4001 122.847 86.0342C121.05 85.4065 119.369 84.5803 117.8 83.6039C110.901 87.8969 104.649 93.2906 99.2559 99.6011C103.926 103.786 109.408 107.12 115.57 109.283C141.326 118.304 169.114 103.533 177.639 76.2962Z" fill="#B8252C"/>
<path d="M105.332 63.8542C104.779 59.7807 105.06 55.5137 106.366 51.3284C110.876 36.9316 125.564 29.1288 139.174 33.8948C146.243 36.3724 151.603 41.7491 154.528 48.3518C155.72 48.3131 156.911 48.283 158.108 48.283C165.254 48.283 172.364 49.1003 179.356 50.6875C176.24 32.6001 164.123 16.8225 146.458 10.6499C120.699 1.62557 92.9105 16.3966 84.3894 43.6246C80.4886 56.0814 81.2981 68.9814 85.7843 80.1865C91.6536 73.911 98.2185 68.4222 105.332 63.8542Z" fill="#B8252C"/>
</svg>
